<svg xmlns="http://www.w3.org/2000/svg" viewBox="0 0 256 256">
<ellipse cx="124" cy="226" rx="66" ry="9" fill="#000" opacity=".14"/>
<path d="M92 112C66 92 42 78 20 74C38 98 60 118 84 128Z" fill="#2B5443"/>
<path d="M104 104C88 78 68 56 44 42C54 70 74 96 94 116Z" fill="#5E9C78"/>
<path d="M104 104C88 80 70 62 52 50C66 72 80 92 96 110Z" fill="#2B5443" opacity=".35"/>
<ellipse cx="96" cy="216" rx="15" ry="9" fill="#2B5443"/>
<ellipse cx="142" cy="216" rx="15" ry="9" fill="#2B5443"/>
<ellipse cx="118" cy="158" rx="60" ry="58" fill="#5E9C78"/>
<circle cx="100" cy="104" r="9" fill="#5E9C78"/>
<circle cx="116" cy="100" r="10" fill="#5E9C78"/>
<circle cx="132" cy="103" r="8" fill="#5E9C78"/>
<ellipse cx="116" cy="178" rx="36" ry="30" fill="#B9C95A"/>
<path d="M150 158L214 130L220 144L158 174Z" fill="#A77B4A"/>
<ellipse cx="217" cy="137" rx="6" ry="9" transform="rotate(-24 217 137)" fill="#2B5443"/>
<circle cx="176" cy="156" r="3" fill="#2B5443"/>
<circle cx="192" cy="149" r="3" fill="#2B5443"/>
<circle cx="230" cy="118" r="6" fill="#B9C95A"/>
<circle cx="238" cy="102" r="4" fill="#B9C95A"/>
<circle cx="226" cy="100" r="3" fill="#B9C95A"/>
<circle cx="112" cy="138" r="8" fill="#2B5443"/>
<circle cx="146" cy="134" r="8" fill="#2B5443"/>
<circle cx="114.5" cy="135.5" r="2.6" fill="#fff"/>
<circle cx="148.5" cy="131.5" r="2.6" fill="#fff"/>
<ellipse cx="66" cy="164" rx="9" ry="15" transform="rotate(24 66 164)" fill="#2B5443" opacity=".5"/>
</svg>
